PathFileType	4	(X/Y/Z)	C:\Users\Basilio\Documents\Thesis Gigler\squatting_fais\c3dfiles\040\SJ_pre3\markers_experimental.trc
DataRate	CameraRate	NumFrames	NumMarkers	Units	OrigDataRate	OrigDataStartFrame	OrigNumFrames
200.000000	200.000000	4	63	mm	200.000000	625	1251
Frame#	Time	FHD			LBHD			RBHD			C7			T10			CLAV			LSHO			LUUPA			LMUPA			LDUPA			LLEP			LMEP			LRAD			LUL			LRFIN			RSHO			RUPA1			RMUPA			RDUPA			RLEP			RMEP			RRAD			RUL			RUFIN			LASI			RASI			USACR			LSACR			RSACR			LTHI1			LTHI2			LTHI3			LTHI4			LLFC			LMFC			LTIB1			LTIB2			LTIB3			LTIB4			LLMAL			LMMAL			LHEE			LMT1			LMT2			LMT5			RTHI			RTHI2			RTHI3			RTHI4			RLFC			RMFC			RTIB1			RTIB2			RTIB3			RTIB4			RLMAL			RMMAL			RHEE			RMT1			RMT2			RMT5			*61			*62			
		X1	Y1	Z1	X2	Y2	Z2	X3	Y3	Z3	X4	Y4	Z4	X5	Y5	Z5	X6	Y6	Z6	X7	Y7	Z7	X8	Y8	Z8	X9	Y9	Z9	X10	Y10	Z10	X11	Y11	Z11	X12	Y12	Z12	X13	Y13	Z13	X14	Y14	Z14	X15	Y15	Z15	X16	Y16	Z16	X17	Y17	Z17	X18	Y18	Z18	X19	Y19	Z19	X20	Y20	Z20	X21	Y21	Z21	X22	Y22	Z22	X23	Y23	Z23	X24	Y24	Z24	X25	Y25	Z25	X26	Y26	Z26	X27	Y27	Z27	X28	Y28	Z28	X29	Y29	Z29	X30	Y30	Z30	X31	Y31	Z31	X32	Y32	Z32	X33	Y33	Z33	X34	Y34	Z34	X35	Y35	Z35	X36	Y36	Z36	X37	Y37	Z37	X38	Y38	Z38	X39	Y39	Z39	X40	Y40	Z40	X41	Y41	Z41	X42	Y42	Z42	X43	Y43	Z43	X44	Y44	Z44	X45	Y45	Z45	X46	Y46	Z46	X47	Y47	Z47	X48	Y48	Z48	X49	Y49	Z49	X50	Y50	Z50	X51	Y51	Z51	X52	Y52	Z52	X53	Y53	Z53	X54	Y54	Z54	X55	Y55	Z55	X56	Y56	Z56	X57	Y57	Z57	X58	Y58	Z58	X59	Y59	Z59	X60	Y60	Z60	X61	Y61	Z61	X62	Y62	Z62	X63	Y63	Z63	

626	3.125	23.92961692810059	1052.712280273438	-892.2620239257815	-103.0274963378907	1010.140197753906	-935.8818969726565	-165.2527465820313	987.4812011718752	-803.505798339844	-188.4356994628907	920.0080566406252	-846.855407714844	-438.7621459960939	746.5652465820314	-847.4935302734377	-127.4149780273438	781.1302490234377	-840.6147460937502	-116.5430603027344	827.5084228515627	-1014.831909179688	-234.5490417480469	772.8242187500002	-1176.832397460938	-261.8027038574219	733.3269653320314	-1170.371704101563	-286.1782226562501	753.9824218750001	-1220.880981445313	-338.8491821289063	745.3186645507814	-1263.318481445313	-378.5989379882813	805.2089843750002	-1239.664672851563	-556.0220947265626	642.8969116210939	-1085.643310546875	-533.4002685546876	581.6854248046876	-1121.703369140625	-512.4925537109376	629.3743896484376	-1034.434448242188	-130.4608917236328	822.1705322265627	-670.8048095703126	-245.0257568359376	823.395446777344	-506.5084838867189	-265.9206848144532	778.5812988281252	-498.2085266113282	-290.5639648437501	811.3464355468752	-454.202606201172	-343.3067932128907	780.9013671875002	-411.6035766601564	-402.386688232422	832.365417480469	-449.6087341308595	-481.534149169922	638.8010253906251	-619.1102905273439	-473.1206665039064	578.2603149414064	-573.4341430664064	-438.6067504882814	613.6677246093751	-673.8730468750001	-439.1865539550782	531.8093872070314	-944.6795654296877	-449.2566833496095	536.6885986328126	-735.0277709960939	-577.3362426757814	654.0617675781251	-845.108337402344	-602.1658325195314	633.9269409179689	-873.179626464844	-608.7408447265626	634.9856567382814	-819.5962524414065	-411.6861267089845	446.2923278808595	-1081.099731445313	-332.1549377441407	471.4446411132814	-1102.17236328125	-319.7137145996094	515.2717285156251	-1089.639282226563	-285.0814514160157	435.6842651367189	-1109.984619140625	-168.0652618408203	427.168914794922	-1126.277465820313	-148.5071258544922	379.2682800292969	-1003.166137695313	-227.0138549804688	234.1682128906251	-1102.536987304688	-312.3265075683594	251.371810913086	-1129.692626953125	-280.7130126953126	219.0951385498047	-1120.784057617188	-317.1080322265626	147.3753051757813	-1094.963989257813	-420.1056518554689	105.4480285644532	-1101.640747070313	-373.6579589843751	99.07413482666018	-1026.385131835938	-482.9878234863282	48.8082733154297	-1063.278686523438	-260.9484863281251	57.05788040161134	-1078.683837890625	-270.0071105957032	55.53393554687501	-1124.2900390625	-323.0365905761719	32.63213729858399	-1166.4931640625	-395.6131591796876	471.197967529297	-613.0435180664064	-331.0641479492188	486.6333007812501	-602.4102172851564	-318.4141540527344	515.5986938476564	-614.1342163085939	-269.1428833007813	430.7329101562501	-588.8406372070314	-181.3152465820313	402.5992431640626	-577.3429565429689	-152.571273803711	380.7109375000001	-711.9779052734376	-230.0204620361329	241.6280517578126	-605.9421997070314	-339.8176574707032	233.3525695800782	-603.2700195312501	-305.3758544921876	202.0056304931641	-605.6765136718751	-317.8149719238282	154.2417755126953	-636.6824951171876	-430.784393310547	102.2677536010742	-632.8450927734376	-391.0704345703126	96.82351684570315	-713.3563842773439	-493.369842529297	51.34401321411134	-690.6080322265626	-276.3075866699219	54.52585601806642	-640.0089111328126	-289.1628112792969	57.66474533081056	-601.7343139648439	-342.4982604980469	36.60385131835938	-559.4899291992189	nan	nan	nan	nan	nan	nan	
627	3.13	23.85999870300293	1051.972534179688	-892.1488037109377	-102.9851455688477	1009.698547363281	-935.814147949219	-165.2447509765625	987.195983886719	-803.3533935546877	-188.2806549072266	919.2615356445315	-846.8049316406252	-438.9398803710939	746.4715576171876	-847.5711669921877	-127.5167846679688	780.5825195312502	-840.506286621094	-116.3529510498047	826.9914550781252	-1014.745422363281	-234.3475494384766	772.3325195312502	-1176.831665039063	-261.1926574707032	732.6933593750001	-1170.484252929688	-285.9406127929688	753.6103515625001	-1220.890991210938	-338.6665954589844	744.9207153320314	-1263.352661132813	-378.4197998046876	805.0073852539065	-1239.66943359375	-556.0206298828126	643.0198974609376	-1085.651000976563	-533.5458374023439	581.7470092773439	-1121.776733398438	-512.5358276367189	629.3090820312501	-1034.464599609375	-130.2114868164063	821.7952270507815	-670.9411621093751	-244.7019653320313	823.0527343750002	-506.3636169433595	-265.8270568847657	777.8333740234377	-498.1682128906251	-290.3958740234376	810.810485839844	-454.3256225585939	-343.0539245605469	780.128112792969	-411.6172790527345	-402.2664184570314	832.2062988281252	-449.495086669922	-481.3100585937501	638.5971069335939	-619.0961914062501	-473.1601562500001	578.0936889648439	-573.5880737304689	-438.7075195312501	613.4794921875001	-674.0557250976564	-438.6992492675782	532.2015380859376	-944.3708496093752	-448.9712524414064	537.6006469726564	-734.7258911132814	-577.6827392578126	653.9926757812501	-845.1405029296877	-602.3269653320314	633.6463012695314	-873.270935058594	-608.9196166992189	634.8153686523439	-819.5982055664065	-411.8118896484376	446.2056579589845	-1081.187622070313	-332.2375793457032	471.4645385742189	-1102.196044921875	-319.8192138671876	515.1614990234376	-1089.640869140625	-285.2652282714844	435.7203674316407	-1110.037719726563	-168.0823669433594	427.2005004882814	-1126.300415039063	-148.5840911865235	379.1768798828126	-1003.189331054688	-227.0532836914063	234.2937469482422	-1102.570922851563	-312.3780212402344	251.3950958251954	-1129.629150390625	-280.9273376464844	219.1748352050782	-1120.829833984375	-317.2660217285157	147.3321380615235	-1095.015258789063	-420.0961914062501	105.4323883056641	-1101.6484375	-373.6472167968751	99.08528900146487	-1026.371826171875	-483.0321655273439	48.70740890502931	-1063.286987304688	-260.9869384765626	57.13552093505861	-1078.722290039063	-269.9802246093751	55.52215576171876	-1124.293823242188	-322.9705505371094	32.59643173217774	-1166.510498046875	-395.7547912597657	471.1057128906251	-613.1795654296876	-331.1587524414063	486.5551757812501	-602.5249023437501	-318.4932250976563	515.5824584960939	-614.2269897460939	-269.2358703613282	430.6846008300782	-589.0294799804689	-181.3730773925782	402.6031494140626	-577.4243774414064	-152.7486877441407	380.6521911621094	-711.9703979492189	-229.9803619384766	241.6616973876954	-605.9831542968751	-339.8210144042969	233.3650970458985	-603.2718505859376	-305.4334106445313	202.0124511718751	-605.7627563476564	-317.9029235839844	154.3704223632813	-636.6845703125001	-430.7927246093751	102.2647399902344	-632.8485717773439	-391.1018371582032	96.82827758789065	-713.3419799804689	-493.3946533203126	51.32946014404298	-690.5960693359376	-276.3428955078126	54.64254379272462	-639.9588012695314	-289.2254943847657	57.6658058166504	-601.7658081054689	-342.4934082031251	36.53343582153321	-559.5391235351564	nan	nan	nan	nan	nan	nan	
628	3.135	24.77781677246094	1050.906982421875	-892.0601196289065	-102.8132858276367	1009.175354003906	-935.7943115234377	-165.2869873046875	986.5035400390627	-803.290954589844	-188.1083221435547	918.8880004882815	-846.7947387695315	-439.1689453125001	746.4196777343751	-847.630310058594	-127.4707107543946	780.174011230469	-840.5017700195315	-116.0711059570313	826.8201904296877	-1014.858581542969	-234.1350555419922	771.964294433594	-1176.888916015625	-261.0281982421876	732.2736206054689	-1170.550048828125	-285.7336120605469	753.2435302734376	-1220.93896484375	-338.5050048828126	744.6119384765626	-1263.360595703125	-378.1820373535157	804.7835693359377	-1239.784423828125	-556.2686767578126	643.2247924804689	-1085.599975585938	-533.7285766601564	581.8318481445314	-1121.897338867188	-512.5988769531251	629.2445678710939	-1034.465698242188	-129.8968505859375	821.4560546875002	-671.0691528320314	-244.4061126708985	822.6016845703127	-506.1723632812501	-265.6165161132813	777.3394165039065	-498.2014465332032	-290.1801452636719	810.5145263671877	-454.2229614257814	-343.1347351074219	779.6965942382815	-411.3118286132814	-402.1309509277345	832.3071289062502	-449.5036010742189	-481.434539794922	638.4780273437501	-619.2835693359376	-473.0202026367189	577.9826049804689	-573.7225952148439	-438.8599853515626	613.3968505859376	-674.1465454101564	-439.0735168457032	531.8494262695314	-944.416931152344	-449.5303955078126	537.1286010742189	-734.7622070312501	-578.0158691406251	653.8253784179689	-845.1721801757815	-602.6560058593751	633.5164794921876	-873.2974853515627	-609.2955932617189	634.6236572265626	-819.6651000976565	-411.8918762207032	446.1213378906251	-1081.243286132813	-332.2369995117188	471.3457946777345	-1102.224609375	-319.9796142578126	515.1376953125001	-1089.664184570313	-285.2828369140626	435.7674560546876	-1110.051025390625	-168.2001647949219	427.2283325195314	-1126.321411132813	-148.8562316894532	379.3556213378907	-1003.187927246094	-227.1282043457032	234.3414916992188	-1102.553955078125	-312.5513610839844	251.5436706542969	-1129.6572265625	-280.8374938964844	219.1679992675782	-1120.759521484375	-317.3184509277344	147.3861999511719	-1095.017944335938	-420.116912841797	105.4315795898438	-1101.640625	-373.6099853515626	99.10620880126956	-1026.354125976563	-482.9855346679689	48.76829528808595	-1063.309448242188	-260.9562377929688	57.13174438476564	-1078.703491210938	-269.9594726562501	55.54525375366212	-1124.287963867188	-323.0087585449219	32.60546875000001	-1166.49365234375	-395.8348083496095	471.0213012695314	-613.2163696289064	-331.2972106933594	486.5110473632814	-602.6743164062501	-318.5617370605469	515.5441894531251	-614.3025512695314	-269.3277587890626	430.6621704101564	-589.1571044921876	-181.4367370605469	402.6932983398439	-577.5280761718751	-152.8123779296875	380.6634216308594	-712.0504150390626	-230.0750579833985	241.6055908203126	-606.0773925781251	-339.8786010742188	233.4402160644532	-603.2885131835939	-305.4500732421876	202.005844116211	-605.7711181640626	-317.9289855957032	154.3209228515625	-636.7115478515626	-430.7957458496095	102.1900863647461	-632.8345947265626	-391.1516418457032	96.7940368652344	-713.3488769531251	-493.392303466797	51.33184051513673	-690.5592651367189	-276.3265380859376	54.63584518432619	-640.0097656250001	-289.1904296875001	57.65969085693361	-601.7585449218751	-342.4595031738282	36.56539916992188	-559.4912109375001	nan	nan	nan	nan	nan	nan	
629	3.14	25.05545043945313	1050.415893554688	-892.091003417969	-102.7651596069336	1008.606994628906	-935.6798095703127	-165.0334930419922	985.945739746094	-803.273620605469	-188.0933837890625	918.686462402344	-846.6500244140627	-439.7518005371095	745.8967895507814	-847.9296875000002	-127.2877349853516	778.8470458984377	-840.715759277344	-115.4950714111328	826.401062011719	-1014.893249511719	-233.9300537109376	771.4665527343752	-1176.979736328125	-260.8080444335938	731.8471069335939	-1170.566528320313	-285.5712585449219	752.7876586914064	-1220.829833984375	-338.3279113769532	744.3264160156251	-1263.315551757813	-377.9630432128907	804.4876708984377	-1239.79638671875	-556.1752929687501	643.2171020507814	-1085.703002929688	-533.9136352539064	581.8533935546876	-1121.926513671875	-512.8554077148439	629.3059082031251	-1034.479248046875	-129.7896728515625	820.7139282226565	-670.9830322265626	-244.2924346923829	822.0971679687502	-506.0726928710939	-265.3738098144532	776.9041137695315	-498.2712707519532	-289.9306640625001	809.768249511719	-454.225555419922	-342.7818298339844	779.1934814453127	-411.004852294922	-401.9428710937501	832.002624511719	-449.3115844726564	-481.4118652343751	638.3049316406251	-619.3207397460939	-473.0951538085939	577.5321044921876	-573.8198242187501	-439.0906066894532	613.3042602539064	-674.3483276367189	-439.4163513183595	532.1542968750001	-945.2733154296877	-449.4525756835939	536.7825927734376	-735.5667114257814	-578.4197998046876	653.6554565429689	-845.284118652344	-602.9984741210939	633.4410400390626	-873.4296875000002	-609.5003051757814	634.3616333007814	-819.798767089844	-411.9974060058595	445.9617004394532	-1081.3125	-332.3133850097657	471.2257080078126	-1102.297119140625	-320.0667114257813	515.1057128906251	-1089.725219726563	-285.4144287109376	435.758758544922	-1110.095336914063	-168.4447021484375	427.700653076172	-1126.312866210938	-148.9153747558594	379.4118041992188	-1003.263122558594	-227.2337036132813	234.4152374267579	-1102.531005859375	-312.5942687988282	251.5480499267579	-1129.687866210938	-280.8662414550782	219.2273559570313	-1120.789428710938	-317.6729736328126	147.836898803711	-1095.175903320313	-420.1597900390626	105.4738464355469	-1101.6171875	-373.6262817382813	99.10511779785159	-1026.38623046875	-483.0242309570314	48.77478790283205	-1063.309448242188	-260.9358825683594	57.19769668579103	-1078.726196289063	-269.9964599609376	55.5423049926758	-1124.281372070313	-323.4522705078126	32.99018859863282	-1166.504150390625	-396.0687561035157	470.8988647460939	-613.2964477539064	-331.4449768066407	486.4608154296876	-602.8591918945314	-318.5876159667969	515.5955200195314	-614.3317871093751	-269.4533996582032	430.544158935547	-589.3507690429689	-181.6043548583985	402.6124877929689	-577.5642700195314	-152.8456726074219	380.7231750488282	-712.1379394531251	-230.0518493652344	241.6551055908204	-606.0854492187501	-339.8357543945313	233.5576629638672	-603.3448486328126	-305.5009155273438	201.9582214355469	-605.8179931640626	-317.9964599609376	154.2706756591797	-636.7277221679689	-430.7816467285157	102.2600708007813	-632.8388671875001	-391.1148071289064	96.7697448730469	-713.3383789062501	-493.3883666992189	51.3375816345215	-690.5611572265626	-276.3609619140626	55.54144668579103	-640.1195678710939	-289.2437133789063	57.6096649169922	-601.7879638671876	-342.5574951171876	36.67057037353516	-559.5233764648439	nan	nan	nan	nan	nan	nan	
